<svg xmlns="http://www.w3.org/2000/svg" width="27.64" height="27.606" viewBox="0 0 27.64 27.606">
  <g id="maintenance" transform="translate(0 -0.006)">
    <path id="Path_1527" data-name="Path 1527" d="M19.97,15.13l-1.842,1.84-1.844-1.842,4.424-4.419a5.45,5.45,0,0,0,6.555-7.232l-.451-1.151-2.9,2.892-1.169-.313-.313-1.168L25.33.845,24.178.395a5.451,5.451,0,0,0-7.241,6.547l-4.424,4.419L6.572,5.427,8.148,3.852,3.262.006,0,3.264l3.851,4.88L5.427,6.57,11.368,12.5,7.463,16.4a5.731,5.731,0,1,0,3.772,3.767l3.906-3.9,1.844,1.842-1.842,1.84,6.669,6.661a3.412,3.412,0,1,0,4.829-4.823ZM2.162,3.392,3.39,2.165,5.715,4,3.994,5.714ZM18.81,7.358l-.193-.493a3.831,3.831,0,0,1,3.632-5.229l-1.62,1.618.8,2.971,2.975.8L26.02,5.4a3.834,3.834,0,0,1-5.235,3.628l-.493-.193L15.14,13.985,13.657,12.5ZM9.34,19.778l.211.5A4.122,4.122,0,0,1,2.839,24.79a4.12,4.12,0,0,1,2.909-7.03,4.138,4.138,0,0,1,1.607.326l.5.211,4.655-4.65L14,15.128Zm10.63-2.361L21.453,18.9l-2.539,2.536-1.483-1.481Zm5.524,8.054a1.8,1.8,0,0,1-2.539,0l-2.9-2.894L22.6,20.04l2.9,2.894a1.794,1.794,0,0,1,0,2.536Z" transform="translate(0)" fill="#fff"/>
    <path id="Path_1528" data-name="Path 1528" d="M60.595,356.444a3.395,3.395,0,1,0,2.4.994A3.372,3.372,0,0,0,60.595,356.444Zm.944,4.338a1.334,1.334,0,1,1,0-1.887A1.326,1.326,0,0,1,61.538,360.782Z" transform="translate(-53.272 -339.532)" fill="#fff"/>
  </g>
</svg>
