<svg xmlns="http://www.w3.org/2000/svg" width="29.997" height="43.994" viewBox="0 0 29.997 43.994">
  <g id="catalog" transform="translate(-70.335)">
    <path id="Path_1519" data-name="Path 1519" d="M99.608,4.02l-14-3.982h-.017a.989.989,0,0,0-.1-.021h-.033A1.02,1.02,0,0,0,85.336,0h0a.99.99,0,0,0-.125.009h-.03a.987.987,0,0,0-.1.022h-.013l-.022.006h0L71.058,4.02a1,1,0,0,0-.723.958V43a1,1,0,0,0,1.268.957l13.731-3.9,13.73,3.9A1,1,0,0,0,100.332,43V4.977A1,1,0,0,0,99.608,4.02ZM72.326,5.729,84.338,2.314V38.271L72.326,41.686ZM98.341,41.686,86.329,38.27V2.313L98.341,5.729Z" fill="#fff"/>
    <path id="Path_1520" data-name="Path 1520" d="M251.723,63.327l6.039,1.717a1,1,0,0,0,.545-1.915l-6.039-1.717a1,1,0,1,0-.545,1.915Z" transform="translate(-162.68 -55.264)" fill="#fff"/>
    <path id="Path_1521" data-name="Path 1521" d="M251.723,113.326l6.039,1.717a1,1,0,1,0,.545-1.915l-6.039-1.717a1,1,0,1,0-.545,1.915Z" transform="translate(-162.68 -100.286)" fill="#fff"/>
    <path id="Path_1522" data-name="Path 1522" d="M251.723,163.326l6.039,1.717a1,1,0,0,0,.545-1.915l-6.039-1.717a1,1,0,1,0-.545,1.915Z" transform="translate(-162.68 -145.309)" fill="#fff"/>
    <path id="Path_1523" data-name="Path 1523" d="M251.725,226.468l6.039,1.717a1,1,0,0,0,1.268-.958v-13.14a1,1,0,0,0-.723-.958l-6.039-1.717a1,1,0,0,0-1.268.957v13.14A1,1,0,0,0,251.725,226.468Zm1.268-12.78,4.048,1.151v11.07l-4.048-1.151Z" transform="translate(-162.682 -190.333)" fill="#fff"/>
    <path id="Path_1524" data-name="Path 1524" d="M117.094,343.41l-6.039,1.717a1,1,0,1,0,.545,1.915l6.039-1.717a1,1,0,1,0-.545-1.915Z" transform="translate(-36.014 -309.19)" fill="#fff"/>
    <path id="Path_1525" data-name="Path 1525" d="M111.325,65.081a1,1,0,0,0,.273-.038l6.039-1.717a1,1,0,0,0-.545-1.915l-6.039,1.717a1,1,0,0,0,.272,1.953Z" transform="translate(-36.014 -55.263)" fill="#fff"/>
    <path id="Path_1526" data-name="Path 1526" d="M117.094,111.41l-6.039,1.717a1,1,0,1,0,.545,1.915l6.039-1.717a1,1,0,1,0-.545-1.915Z" transform="translate(-36.014 -100.285)" fill="#fff"/>
  </g>
</svg>
