<svg xmlns="http://www.w3.org/2000/svg" width="380.534" height="190.17" viewBox="0 0 380.534 190.17"><g transform="translate(-3261.33 -4313.21)"><path d="M4773.341,4982.778l220.773,79.349L4852.39,5105.9l-218.181-86.853Z" transform="translate(-1357 -668)" fill="#ebebeb" stroke="#bebebe" stroke-width="3"/><path d="M4851.255,5105.27h0s-20.622,4.212-9.4,65.23l147.859-54.554-6.859-6.115-.158-41.012,14.8-6.535-3.474-1.219Z" transform="translate(-1357 -668)" fill="#9d9d9d" stroke="#989898" stroke-width="1"/><path d="M4633.954,5018.026s-13.031-1.348-15.11,28.135c0,0-.566,21.734,11.151,27.782l211.863,96.576s-11.493-57.534,9.537-66.064Z" transform="translate(-1357 -668)" fill="#707070" stroke="#5d5d5d" stroke-width="1"/><path d="M3900.614,4425.616l24.727,10.707v28.551l-24.727-9.942v-28.678" transform="translate(-604 -51)" fill="#9d9d9d" stroke="#707070" stroke-width="1"/><path d="M3900.614,4425.616l19.914,9.282v27.787l-19.914-7.754v-28.678" transform="translate(-574 -38)" fill="#9d9d9d" stroke="#707070" stroke-width="1"/><path d="M3900.614,4425.616l19.914,9.282v27.787l-19.914-7.754v-28.678" transform="translate(-469 7)" fill="#9d9d9d" stroke="#707070" stroke-width="1"/><path d="M3900.614,4425.616l62.367,25.008-1.293,30.587-61.074-28.4v-26.609" transform="translate(-543 -24)" fill="#9d9d9d" stroke="#707070" stroke-width="1"/></g></svg>