<svg xmlns="http://www.w3.org/2000/svg" xmlns:xlink="http://www.w3.org/1999/xlink" width="312.787" height="90.982" viewBox="0 0 312.787 90.982">
  <defs>
    <linearGradient id="linear-gradient" x1="0.435" y1="0.761" x2="0.435" y2="-0.172" gradientUnits="objectBoundingBox">
      <stop offset="0" stop-color="#a0a0a0"/>
      <stop offset="0.082" stop-color="#a7a7a7"/>
      <stop offset="0.207" stop-color="#bcbdbd"/>
      <stop offset="0.262" stop-color="#c8c9c9"/>
      <stop offset="0.388" stop-color="#c9c9c9"/>
      <stop offset="0.425" stop-color="#c3c3c3"/>
      <stop offset="0.666" stop-color="#a1a1a1"/>
      <stop offset="0.866" stop-color="#8d8d8d"/>
      <stop offset="1" stop-color="#868686"/>
    </linearGradient>
    <linearGradient id="linear-gradient-2" x1="0.435" y1="0.735" x2="0.435" y2="-0.194" gradientUnits="objectBoundingBox">
      <stop offset="0" stop-color="#a0a0a0"/>
      <stop offset="0.082" stop-color="#a7a7a7"/>
      <stop offset="0.207" stop-color="#bcbdbd"/>
      <stop offset="0.262" stop-color="#c8c9c9"/>
      <stop offset="0.762" stop-color="#c9c9c9"/>
      <stop offset="1" stop-color="#fff"/>
    </linearGradient>
    <linearGradient id="linear-gradient-3" x1="0.435" y1="0.703" x2="0.435" y2="-0.221" xlink:href="#linear-gradient-2"/>
    <linearGradient id="linear-gradient-4" x1="0.434" y1="0.666" x2="0.434" y2="-0.253" xlink:href="#linear-gradient-2"/>
    <linearGradient id="linear-gradient-5" x1="0.434" y1="0.62" x2="0.434" y2="-0.292" xlink:href="#linear-gradient-2"/>
    <linearGradient id="linear-gradient-6" x1="0.434" y1="0.563" x2="0.434" y2="-0.34" xlink:href="#linear-gradient-2"/>
    <linearGradient id="linear-gradient-7" x1="0.433" y1="0.491" x2="0.433" y2="-0.402" xlink:href="#linear-gradient-2"/>
    <linearGradient id="linear-gradient-8" x1="0.433" y1="0.395" x2="0.433" y2="-0.483" xlink:href="#linear-gradient-2"/>
    <linearGradient id="linear-gradient-9" x1="0.433" y1="0.331" x2="0.433" y2="-0.597" xlink:href="#linear-gradient-2"/>
    <linearGradient id="linear-gradient-10" x1="0.432" y1="0.327" x2="0.432" y2="-0.769" xlink:href="#linear-gradient-2"/>
    <linearGradient id="linear-gradient-11" x1="0.432" y1="0.412" x2="0.432" y2="-0.68" xlink:href="#linear-gradient-2"/>
    <linearGradient id="linear-gradient-12" x1="0.432" y1="0.481" x2="0.432" y2="-0.595" xlink:href="#linear-gradient-2"/>
    <linearGradient id="linear-gradient-13" x1="0.431" y1="0.532" x2="0.431" y2="-0.532" xlink:href="#linear-gradient-2"/>
    <linearGradient id="linear-gradient-14" x1="0.431" y1="0.571" x2="0.431" y2="-0.483" xlink:href="#linear-gradient-2"/>
    <linearGradient id="linear-gradient-15" x1="0.431" y1="0.603" x2="0.431" y2="-0.445" xlink:href="#linear-gradient-2"/>
    <linearGradient id="linear-gradient-16" x1="0.43" y1="0.628" x2="0.43" y2="-0.413" xlink:href="#linear-gradient-2"/>
    <linearGradient id="linear-gradient-17" x1="0.43" y1="0.65" x2="0.43" y2="-0.387" xlink:href="#linear-gradient-2"/>
    <linearGradient id="linear-gradient-18" x1="0.43" y1="0.698" x2="0.43" y2="-0.33" xlink:href="#linear-gradient-2"/>
    <linearGradient id="linear-gradient-19" x1="0.5" y1="1" x2="0.5" gradientUnits="objectBoundingBox">
      <stop offset="0" stop-color="#fff"/>
      <stop offset="0.008" stop-color="#f9f9f9"/>
      <stop offset="0.018" stop-color="#e9e9e8"/>
      <stop offset="0.029" stop-color="#cfcecd"/>
      <stop offset="0.034" stop-color="#c2c1c0"/>
      <stop offset="0.801" stop-color="#c2c1c0"/>
      <stop offset="0.911" stop-color="#8c8b8b"/>
      <stop offset="1" stop-color="#656565"/>
    </linearGradient>
    <linearGradient id="linear-gradient-20" x1="0.5" y1="1" x2="0.5" gradientUnits="objectBoundingBox">
      <stop offset="0" stop-color="#fff"/>
      <stop offset="0.009" stop-color="#faf9f9"/>
      <stop offset="0.022" stop-color="#eceae8"/>
      <stop offset="0.034" stop-color="#d9d4d1"/>
      <stop offset="0.801" stop-color="#d9d4d1"/>
      <stop offset="0.82" stop-color="#c7c8c7"/>
      <stop offset="0.864" stop-color="#a0aeb2"/>
      <stop offset="1" stop-color="#424552"/>
    </linearGradient>
    <linearGradient id="linear-gradient-21" x1="0.5" y1="0.97" x2="0.5" y2="-0.03" gradientUnits="objectBoundingBox">
      <stop offset="0.034" stop-color="#9ba3ab"/>
      <stop offset="0.801" stop-color="#767e83"/>
      <stop offset="0.864" stop-color="#737777"/>
      <stop offset="1" stop-color="#5a5d64"/>
    </linearGradient>
    <linearGradient id="linear-gradient-22" x1="0.5" y1="0.96" x2="0.5" y2="-0.04" xlink:href="#linear-gradient-21"/>
    <linearGradient id="linear-gradient-23" x1="0.5" y1="0.967" x2="0.5" y2="-0.033" gradientUnits="objectBoundingBox">
      <stop offset="0.034" stop-color="#9ba3ab"/>
      <stop offset="0.801" stop-color="#767e83"/>
      <stop offset="0.864" stop-color="#737777"/>
      <stop offset="1" stop-color="#595d63"/>
    </linearGradient>
    <linearGradient id="linear-gradient-24" x1="0.5" y1="0.967" x2="0.5" y2="-0.033" gradientUnits="objectBoundingBox">
      <stop offset="0.034" stop-color="#979ea6"/>
      <stop offset="0.801" stop-color="#747b82"/>
      <stop offset="0.864" stop-color="#686a6b"/>
      <stop offset="1" stop-color="#53565c"/>
    </linearGradient>
    <linearGradient id="linear-gradient-25" x1="0.5" y1="0.963" x2="0.5" y2="-0.037" gradientUnits="objectBoundingBox">
      <stop offset="0.034" stop-color="#9aa2a9"/>
      <stop offset="0.801" stop-color="#8c8e8e"/>
      <stop offset="0.864" stop-color="#7d8089"/>
      <stop offset="1" stop-color="#595753"/>
    </linearGradient>
    <linearGradient id="linear-gradient-26" y1="0.5" x2="1" y2="0.5" gradientUnits="objectBoundingBox">
      <stop offset="0" stop-color="#5a5d64"/>
      <stop offset="0.222" stop-color="#7a7c82"/>
      <stop offset="0.707" stop-color="#cbccce"/>
      <stop offset="1" stop-color="#fff"/>
    </linearGradient>
    <linearGradient id="linear-gradient-27" x1="0.5" y1="1" x2="0.5" gradientUnits="objectBoundingBox">
      <stop offset="0.024" stop-color="#5a5d64"/>
      <stop offset="0.915" stop-color="#9ba3ab"/>
      <stop offset="0.993" stop-color="#9ba3ab"/>
    </linearGradient>
  </defs>
  <g id="Group_1441" data-name="Group 1441" transform="translate(-257 -161)">
    <text id="KEEN_S" data-name="KEEN’S" transform="translate(369.444 218.052)" fill="#e15c16" font-size="52" font-family="Arial-Black, Arial" font-weight="800" letter-spacing="-0.055em"><tspan x="0" y="0">KEEN’S</tspan></text>
    <text id="BUILDINGS" transform="translate(400.808 239.374)" fill="#3d3d3d" font-size="15" font-family="MyriadPro-Bold, Myriad Pro" font-weight="700" letter-spacing="0.3em"><tspan x="0" y="0">BUILDINGS</tspan></text>
    <path id="Path_1" data-name="Path 1" d="M291.947,383.242" transform="translate(134.764 -207.518)" fill="none" stroke="#434343" stroke-miterlimit="10" stroke-width="5"/>
    <line id="Line_1" data-name="Line 1" x2="196.682" transform="translate(373.105 223.5)" fill="none" stroke="#3c3c3c" stroke-miterlimit="10" stroke-width="2"/>
    <path id="Path_2" data-name="Path 2" d="M218.653,407.237v26.877l-33.211,27.341V394.417Z" transform="translate(153.408 -209.474)" fill="#434343"/>
    <path id="Path_3" data-name="Path 3" d="M187.049,388.237l31.9,15.881.113.57-33.064-13.1Z" transform="translate(153.312 -208.392)" fill="#434343"/>
    <path id="Path_4" data-name="Path 4" d="M123.123,365.393l46.459,18.845-1.054,3.355L123.123,369.1l-36.9,23.3v-1.86Z" transform="translate(170.778 -204.393)" fill="#e04b17"/>
    <path id="Path_5" data-name="Path 5" d="M168.242,390.614l-44.8-17.918-36.26,22.055.264,53.218,80.792,9.684Z" transform="translate(170.609 -205.672)" fill="#e04b17"/>
    <path id="Path_6" data-name="Path 6" d="M220.347,413.2l-3.523-1.687v32l3.523-2.748Z" transform="translate(147.915 -212.466)" fill="#fff"/>
    <path id="Path_7" data-name="Path 7" d="M153.308,461.746l-.974-.078-51.821-4.289-.668-.055-.268-44a.79.79,0,0,1,.662-.8L152,407.634a.849.849,0,0,1,.978.807Z" transform="translate(168.44 -211.787)" fill="#fff"/>
    <path id="Path_8" data-name="Path 8" d="M100.642,455.7l-.257-42.237,51.767-4.737.324,53.139Z" transform="translate(168.299 -211.978)" fill="#4f4f4f"/>
    <path id="Path_9" data-name="Path 9" d="M101.787,455.724l-.256-42.064,49.384-4.176.317,52Z" transform="translate(168.098 -212.112)" fill="#868686"/>
    <path id="Path_10" data-name="Path 10" d="M151.05,413.685l-49.386,3.808-.012-1.892,49.384-4.176Z" transform="translate(168.077 -212.451)" fill="url(#linear-gradient)"/>
    <path id="Path_11" data-name="Path 11" d="M151.071,417.111l-49.389,3.348-.012-1.892,49.386-3.716Z" transform="translate(168.073 -213.051)" fill="url(#linear-gradient-2)"/>
    <path id="Path_12" data-name="Path 12" d="M151.091,420.535,101.7,423.423l-.012-1.892,49.389-3.256Z" transform="translate(168.07 -213.651)" fill="url(#linear-gradient-3)"/>
    <path id="Path_13" data-name="Path 13" d="M151.111,423.96l-49.394,2.429-.012-1.892,49.392-2.8Z" transform="translate(168.067 -214.25)" fill="url(#linear-gradient-4)"/>
    <path id="Path_14" data-name="Path 14" d="M151.131,427.385l-49.4,1.969-.012-1.892,49.395-2.337Z" transform="translate(168.064 -214.85)" fill="url(#linear-gradient-5)"/>
    <path id="Path_15" data-name="Path 15" d="M151.152,430.809l-49.4,1.509-.012-1.892,49.4-1.877Z" transform="translate(168.061 -215.449)" fill="url(#linear-gradient-6)"/>
    <path id="Path_16" data-name="Path 16" d="M151.172,434.234l-49.4,1.049-.012-1.892,49.4-1.417Z" transform="translate(168.058 -216.049)" fill="url(#linear-gradient-7)"/>
    <path id="Path_17" data-name="Path 17" d="M151.192,437.659l-49.406.589-.012-1.892,49.4-.957Z" transform="translate(168.055 -216.648)" fill="url(#linear-gradient-8)"/>
    <path id="Path_18" data-name="Path 18" d="M151.213,441.084l-49.408.13-.012-1.892,49.406-.5Z" transform="translate(168.052 -217.248)" fill="url(#linear-gradient-9)"/>
    <path id="Path_19" data-name="Path 19" d="M151.233,444.508l-49.411-.33-.012-1.892,49.409-.038Z" transform="translate(168.049 -217.847)" fill="url(#linear-gradient-10)"/>
    <path id="Path_20" data-name="Path 20" d="M151.253,447.844l-49.414-.79-.012-1.892,49.412.422Z" transform="translate(168.046 -218.357)" fill="url(#linear-gradient-11)"/>
    <path id="Path_21" data-name="Path 21" d="M151.273,451.171l-49.417-1.25-.012-1.892,49.414.882Z" transform="translate(168.043 -218.859)" fill="url(#linear-gradient-12)"/>
    <path id="Path_22" data-name="Path 22" d="M151.294,454.5l-49.42-1.71-.012-1.892,49.417,1.342Z" transform="translate(168.04 -219.361)" fill="url(#linear-gradient-13)"/>
    <path id="Path_23" data-name="Path 23" d="M151.314,457.826l-49.422-2.169-.012-1.892,49.42,1.8Z" transform="translate(168.037 -219.863)" fill="url(#linear-gradient-14)"/>
    <path id="Path_24" data-name="Path 24" d="M151.334,461.152l-49.425-2.629-.012-1.892,49.423,2.261Z" transform="translate(168.034 -220.365)" fill="url(#linear-gradient-15)"/>
    <path id="Path_25" data-name="Path 25" d="M151.354,464.479l-49.428-3.089-.012-1.892,49.426,2.721Z" transform="translate(168.031 -220.867)" fill="url(#linear-gradient-16)"/>
    <path id="Path_26" data-name="Path 26" d="M151.375,467.807l-49.433-3.929-.009-1.512,49.429,3.181Z" transform="translate(168.028 -221.369)" fill="url(#linear-gradient-17)"/>
    <path id="Path_27" data-name="Path 27" d="M151.434,471.141l-49.444-5.658-.005-.849,49.433,3.988Z" transform="translate(168.018 -221.766)" fill="url(#linear-gradient-18)"/>
    <path id="Path_28" data-name="Path 28" d="M204.865,429.325s0,.068-.193.162l-8.659,2.271c-.323-.18-.318-.2-.318-.572l.074-17.082c0-.516.158-.9.351-.85l8.491,2.17c.11.028.2.367.2.752Z" transform="translate(151.614 -212.771)" fill="#868686"/>
    <path id="Path_29" data-name="Path 29" d="M204.827,428.1c0,.387-.089.725-.2.753l-8.491,2.17c-.192.049-.351-.333-.351-.851v-17.9c0-.517.158-.639.349-.582l8.542,2.479c.11.033.149.184.149.57Z" transform="translate(151.598 -212.495)" fill="#fff"/>
    <path id="Path_30" data-name="Path 30" d="M204.827,428.374c0,.385,0,.756-.111.785l-8.579,2.221c-.192.051-.351-.091-.351-.607V412.634c0-.517.093-.9.285-.844l8.557,2.464c.11.031.2.373.2.759Z" transform="translate(151.598 -212.514)" fill="#dcdcdc"/>
    <path id="Path_31" data-name="Path 31" d="M196.721,430.541V413.249l7.946,1.98-.186,13.679Z" transform="translate(151.434 -212.771)" fill="url(#linear-gradient-19)"/>
    <path id="Path_32" data-name="Path 32" d="M204.419,428.75l-7.628,1.686V413.547l7.736,1.867Z" transform="translate(151.422 -212.823)" fill="url(#linear-gradient-20)"/>
    <path id="Path_33" data-name="Path 33" d="M197.806,430.252l-.509.113v-16.7l.509.123Z" transform="translate(151.333 -212.844)" fill="url(#linear-gradient-21)"/>
    <path id="Path_34" data-name="Path 34" d="M200.36,429.816l-1.479.327V414.051l1.45.35Z" transform="translate(151.056 -212.911)" fill="url(#linear-gradient-22)"/>
    <path id="Path_35" data-name="Path 35" d="M202.254,429.588l-1.017.225V414.62l1.017.245Z" transform="translate(150.644 -213.011)" fill="url(#linear-gradient-23)"/>
    <path id="Path_36" data-name="Path 36" d="M203.692,429.419l-.612.135v-14.49l.612.148Z" transform="translate(150.321 -213.089)" fill="url(#linear-gradient-24)"/>
    <path id="Path_37" data-name="Path 37" d="M205.591,429.1l-1.309.289V415.355l1.309.316Z" transform="translate(150.11 -213.139)" fill="url(#linear-gradient-25)"/>
    <path id="Path_38" data-name="Path 38" d="M196.791,427.218V413.547l6.69,1.614Z" transform="translate(151.422 -212.823)" opacity="0.8" fill="url(#linear-gradient-26)"/>
    <path id="Path_39" data-name="Path 39" d="M217.087,443.131V412.093l3.089,1.414v27.009Z" transform="translate(147.869 -212.568)" fill="url(#linear-gradient-27)"/>
  </g>
</svg>
